PathFileType	4	(X/Y/Z)	C:/Users/beibeiliu/ov580/test_trc\sequence.6_training_dense_right.trc
DataRate	CameraRate	NumFrames	NumMarkers	Units	OrigDataRate	OrigDataStartFrame	OrigNumFrames
120	120	24	19	mm	120	118	314
Frame#	Time	ThumbCMC			ThumbMCP			ThumbIP			ThumbTip			IndexMCP			IndexPIP			IndexTip			MiddleMCP			MiddlePIP			MiddleTip			RingMCP			RingPIP			RingTip			PinkyMCP			PinkyPIP			PinkyTip			BackHand1			BackHand2			BackHand3	
		X0	Y0	Z0	X1	Y1	Z1	X2	Y2	Z2	X3	Y3	Z3	X4	Y4	Z4	X5	Y5	Z5	X6	Y6	Z6	X7	Y7	Z7	X8	Y8	Z8	X9	Y9	Z9	X10	Y10	Z10	X11	Y11	Z11	X12	Y12	Z12	X13	Y13	Z13	X14	Y14	Z14	X15	Y15	Z15	X16	Y16	Z16	X17	Y17	Z17	X18	Y18	Z18	
117	0.975	156.972	-17.3461	0.469312	154.797	-40.0421	-20.2776	153.404	-51.5296	-40.7374	166.077	-58.7999	-64.0531	160.656	-2.57932	-59.0513	155.888	-14.2399	-87.0174	154.025	-37.8416	-99.2323	176.816	-18.6958	-65.9417	182.254	-51.2704	-64.1023	183.145	-51.6305	-32.8287	198.408	-26.5512	-56.5033	191.77	-51.9942	-42.6001	189.472	-43.2118	-20.3357	212.875	-27.4152	-49.1107	202.762	-45.5406	-36.8385	197.019	-34.4253	-12.5224	202.001	9.17818	-21.2064	201.078	13.2291	6.60573	173.649	12.157	-8.78294	
118	0.983333	160.489	-17.1508	0.770216	156.262	-39.1745	-19.0861	154.14	-50.5697	-39.7418	166.199	-57.5806	-61.3335	159.167	-2.53042	-60.7643	154.996	-14.5879	-87.3977	154.494	-40.2733	-97.1802	179.773	-18.9901	-66.9319	179.62	-49.0359	-67.8986	181.189	-49.8482	-31.947	199.452	-27.5279	-57.3889	192.811	-50.3332	-44.5434	190.043	-40.2623	-17.9066	211.871	-24.2881	-47.6392	204.487	-45.4078	-36.7487	197.422	-35.9242	-15.2341	196.66	9.47716	-24.5251	202.755	14.6805	3.60419	173.125	12.4091	-4.94953	
119	0.991667	159.361	-17.0899	0.719303	157.886	-37.48	-22.3926	156.662	-49.5619	-41.0412	168.018	-57.9374	-63.1197	156.663	-4.0016	-60.0842	156.503	-15.605	-87.9781	157.311	-37.5415	-96.6268	176.956	-22.5476	-68.9729	183.053	-48.8635	-68.3738	179.882	-51.2773	-33.9576	196.119	-28.2177	-59.1011	193.626	-51.5114	-43.8355	191.565	-39.6492	-17.2681	214.381	-25.489	-48.2087	207.474	-47.116	-35.0312	197.759	-33.7883	-15.1017	199.704	11.5353	-25.803	200.795	15.4163	2.72823	173.566	10.1233	-7.91707	
120	1	157.439	-18.4727	3.06551	154.431	-41.8634	-18.9351	156.427	-50.8734	-44.607	167.656	-59.2043	-61.7048	159.364	-3.12991	-60.9737	153.619	-13.3687	-85.3181	160.416	-40.6065	-99.7462	182.951	-19.9807	-66.9822	186.17	-51.2609	-64.1431	183.964	-52.7031	-36.1999	196.766	-28.179	-58.0745	199.106	-51.9464	-44.225	191.482	-40.3731	-16.911	214.778	-27.9076	-49.1388	204.522	-45.9497	-35.993	199.259	-36.6177	-14.9252	198.481	9.48759	-25.5016	199.299	13.1908	6.15675	173.05	9.5708	-5.7088	
121	1.00833	159.063	-19.6173	0.554826	157.471	-40.7629	-18.7181	160.308	-49.9073	-39.7506	170.991	-57.3701	-62.8893	157.819	-4.39457	-61.5673	155.895	-14.6904	-87.4351	160.308	-37.3453	-101.526	183.875	-20.9078	-69.1804	183.717	-48.9919	-67.2699	183.87	-52.8114	-35.9337	197.04	-27.922	-58.7748	198.218	-52.2542	-42.573	194.964	-44.3435	-19.1093	217.481	-25.1951	-49.0913	207.847	-46.2016	-35.1551	200.808	-37.0583	-14.8912	200.701	11.3602	-20.983	197.031	15.0671	1.99699	172.186	8.7027	-5.06662	
122	1.01667	159.819	-20.3985	4.86197	156.592	-43.3932	-18.3449	158.869	-53.3188	-39.5193	173.201	-58.2109	-59.5015	160.941	-3.94847	-60.221	155.42	-13.704	-87.6917	155.523	-36.6906	-104.534	181.349	-20.546	-68.0308	188.284	-51.9799	-64.1262	183.301	-51.8502	-31.7599	202.222	-24.832	-56.2545	197.892	-50.6735	-45.238	195.909	-43.3523	-18.2408	214.66	-25.2883	-48.4724	206.582	-44.3724	-35.8443	197.463	-35.9411	-16.3626	199.816	10.4367	-20.509	198.47	13.7674	5.0824	174.634	11.5548	-8.15709	
123	1.025	162.795	-18.948	0.613509	159.205	-43.7471	-20.3232	160.321	-55.6973	-42.0596	172.48	-60.9688	-58.4401	160.073	-4.9496	-61.0835	153.383	-13.7754	-88.9051	158.411	-30.9979	-108.389	180.263	-23.083	-68.5732	189.862	-51.7115	-63.0301	188.957	-51.7823	-32.2006	200.347	-28.9493	-57.656	201.18	-51.1396	-43.92	196.159	-43.325	-19.1815	213.513	-24.9438	-48.9209	210.484	-44.3308	-37.854	197.081	-33.3309	-16.1053	197.304	10.3759	-25.027	196.977	16.4278	6.84737	171.337	11.0696	-5.48894	
124	1.03333	163.704	-20.7126	-0.132556	159.061	-46.0066	-19.2867	165.831	-53.5914	-41.4285	176.165	-63.6038	-62.2349	155.798	-7.33293	-64.5645	152.772	-13.9307	-86.954	154.827	-24.6104	-109.628	181.779	-24.2014	-68.0937	187.121	-50.9665	-66.9297	189.356	-52.8027	-32.2867	203.209	-28.476	-57.542	201.584	-50.3608	-43.2245	193.923	-40.6692	-16.2622	217.138	-27.9197	-48.3167	211.415	-44.5462	-35.873	198.092	-31.2614	-13.6594	196.172	9.93136	-25.3684	200.714	14.3927	4.73229	171.74	8.36743	-11.368	
125	1.04167	161.071	-22.612	0.970763	162.231	-45.7992	-23.958	165.755	-57.8442	-41.4499	178.928	-63.6026	-62.1913	157.337	-9.2542	-62.1275	153.274	-13.6701	-85.7938	151.762	-20.4757	-109.699	182.343	-24.1779	-66.4282	189.636	-53.1563	-65.9819	193.934	-52.8463	-32.1824	204.692	-31.9088	-58.535	203.975	-51.9652	-38.9673	194.216	-41.9099	-16.689	217.264	-23.703	-47.6822	213.25	-44.2815	-29.7872	200.862	-33.2619	-14.2483	197.774	11.2487	-24.5739	199.545	14.4647	2.66476	171.822	9.11575	-12.9578	
126	1.05	162.54	-24.6306	-1.87796	162.355	-48.3834	-23.7094	168.652	-57.2991	-42.5608	181.488	-65.0488	-60.7706	157.63	-11.1123	-62.4269	156.712	-14.1209	-87.8141	153.323	-17.7542	-108.873	184.126	-28.3123	-69.8895	192.167	-55.7428	-63.834	196.348	-54.0582	-33.6145	201.803	-29.8578	-57.4401	204.946	-52.3835	-38.8314	196.279	-43.0135	-18.7069	220.274	-23.8373	-47.6798	211.952	-44.2813	-31.0031	200.994	-32.0686	-13.1828	196.385	8.33402	-24.2893	195.226	14.1237	-0.584416	169.787	4.91956	-12.4019	
127	1.05833	161.462	-25.9237	-1.44121	161.661	-50.4792	-26.4233	170.521	-58.9192	-44.9748	182.829	-66.1242	-61.7917	160.18	-12.2093	-68.4953	155.311	-15.4276	-87.7223	154.753	-16.6496	-107.939	183.43	-31.3456	-69.8653	194.473	-55.7488	-65.5585	195.285	-55.8436	-31.57	203.96	-31.1403	-57.7308	206.984	-53.3386	-42.431	199.865	-44.0923	-17.3713	220.675	-25.3921	-47.5087	215.76	-45.4061	-33.7845	201.901	-32.9162	-12.5679	195.286	6.9483	-28.9792	194.682	13.9407	2.50932	170.559	6.15001	-13.5395	
128	1.06667	162.219	-26.7682	-2.80939	163.789	-51.2631	-20.5348	171.625	-60.1568	-46.4454	184.081	-67.9198	-62.3792	162.07	-13.6021	-65.5727	154.88	-17.9589	-89.9803	153.82	-17.4645	-111.307	188.715	-28.2341	-68.0122	194.954	-57.658	-65.4586	196.275	-53.8117	-29.6913	207.836	-31.6492	-58.6128	208.315	-54.2885	-40.377	197.136	-44.4875	-17.1359	220.585	-28.5697	-48.0778	214.283	-46.8319	-34.8199	203.45	-34.7545	-12.178	197.703	6.92495	-28.5818	199.194	11.8403	-0.656404	175.306	4.03013	-15.4376	
129	1.075	162.144	-27.8807	-3.16267	164.283	-53.1492	-22.1558	172.388	-61.1418	-44.0391	186.522	-65.1565	-62.587	159.753	-15.8372	-67.5075	155.906	-18.9162	-89.7478	152.697	-20.3946	-106.043	187.316	-28.9557	-67.8899	197.706	-56.9446	-65.1993	195.265	-56.8932	-30.9419	208.429	-33.8894	-59.0311	207.845	-56.0069	-41.8106	200.923	-45.8162	-16.2	217.773	-31.0403	-48.5009	215.276	-47.1285	-36.0118	206.241	-33.4729	-11.8506	200.253	7.64867	-29.7182	201.102	12.4394	2.42888	171.246	3.92558	-10.9531	
130	1.08333	163.714	-28.5347	-0.28392	165.034	-54.2953	-24.4274	173.087	-61.118	-41.6013	185.57	-72.2011	-62.8997	159.99	-16.9142	-66.1281	156.054	-20.7714	-86.1914	155.04	-21.3279	-111.559	189.873	-30.9177	-68.7009	197.462	-59.5188	-63.3828	195.952	-59.4685	-32.6035	208.08	-35.8722	-60.0086	207.668	-56.4357	-42.2813	202.597	-47.8701	-18.1441	223.168	-27.7766	-49.0283	217.77	-47.6886	-30.8598	206.658	-36.4967	-11.2895	201.73	7.14981	-28.0083	199.407	12.8331	1.51719	173.223	1.88469	-11.3253	
131	1.09167	167.189	-28.7126	-2.40177	167.391	-52.6539	-21.2148	174.736	-64.061	-42.9342	188.333	-69.2511	-60.789	160.923	-18.6566	-68.3079	158.332	-23.1544	-88.0527	154.413	-26.1948	-109.138	187.74	-34.6594	-70.3272	200.412	-58.2386	-66.5363	200.168	-59.6346	-31.4695	210.958	-34.5125	-58.1271	212.266	-56.6856	-42.407	201.484	-47.7576	-16.8739	225.025	-31.3775	-48.5476	219.142	-47.4894	-31.0311	206.664	-37.1665	-14.1416	199.732	4.18485	-28.3129	196.238	10.6268	2.03967	171.917	0.249561	-12.1327	
132	1.1	166.953	-30.23	-1.01512	168.605	-56.3713	-23.0829	176.092	-65.6073	-41.2655	188.885	-72.296	-62.3939	162.665	-20.6421	-64.6469	158.248	-26.2298	-86.0094	157.259	-31.4767	-111.475	192.331	-32.3648	-69.0696	198.827	-63.6583	-64.0576	201.353	-60.3414	-30.4138	208.553	-36.5102	-58.1863	213.682	-57.8393	-39.3768	203.5	-50.2565	-18.3623	221.618	-28.599	-47.2431	220.302	-48.507	-35.9565	208.091	-39.9771	-15.0254	202.074	6.3398	-28.8466	199.548	9.55222	-0.0902842	173.253	-1.49766	-13.4652	
133	1.10833	168.888	-31.7543	-2.77321	170.437	-56.0571	-21.5692	175.803	-67.9064	-42.6138	188.967	-73.5605	-59.0287	162.691	-22.0165	-64.7164	163.484	-27.0553	-91.2623	165.437	-35.2047	-112.293	194.19	-34.9372	-71.1398	203.022	-62.6355	-65.3441	204.797	-62.7057	-33.7979	213.901	-37.8887	-58.9243	213.609	-58.5951	-42.9229	207.212	-50.0169	-15.8946	225.888	-29.9266	-47.3767	224.11	-49.748	-32.3759	208.008	-40.7188	-14.0459	199.933	3.65686	-28.5749	201.757	10.2251	0.404288	173.777	-0.493299	-14.9635	
134	1.11667	168.201	-32.7658	-3.23654	173.319	-55.2378	-24.1399	177.721	-68.7838	-40.3368	190.122	-76.0268	-60.2263	168.814	-21.0192	-67.083	163.35	-29.8007	-92.246	168.291	-44.7837	-112.824	192.01	-34.5327	-70.3383	204.789	-62.7951	-65.969	203.192	-64.2529	-33.6809	210.981	-37.843	-58.9189	215.145	-61.1474	-41.0082	209.112	-52.7539	-18.0753	228.549	-35.2536	-48.8308	221.731	-51.6357	-31.3115	209.737	-41.7954	-12.2936	204.143	1.74842	-28.7466	199.674	6.36371	3.8925	178.54	-2.61834	-11.3749	
135	1.125	166.428	-35.4562	-0.989015	172.574	-57.6262	-19.9699	179.237	-69.5268	-41.1416	192.316	-79.1578	-62.7729	167.085	-22.1552	-67.2533	169.347	-29.1459	-89.8523	174.77	-48.866	-107.47	193.113	-31.9798	-68.5905	202.283	-63.4892	-69.3967	202.561	-65.3314	-35.8725	211.576	-38.9917	-60.6494	214.303	-61.5502	-44.0024	205.892	-52.432	-18.8759	229.847	-34.6527	-48.2863	222.78	-52.6241	-36.7298	209.407	-44.5121	-18.2609	204.403	0.18992	-28.9616	202.038	8.25527	1.12106	178.376	-3.78612	-10.6659	
136	1.13333	170.205	-35.1704	-4.23844	173.374	-58.715	-23.8942	178.541	-72.4261	-42.6135	193.615	-80.1194	-60.9811	170.674	-21.3292	-70.1974	168.663	-31.5964	-91.4203	178.528	-53.4275	-105.154	193.311	-33.3081	-73.2309	205.918	-61.0555	-71.6166	201.407	-66.3682	-38.8376	212.446	-36.0119	-60.1083	217.036	-59.1735	-49.0029	208.455	-52.7609	-19.7477	225.714	-29.5372	-48.2841	225.319	-51.6835	-32.9739	213.023	-42.2506	-14.4853	202.945	0.637312	-26.9366	199.554	5.00706	3.79282	175.742	-3.92726	-12.3244	
137	1.14167	170.253	-34.9781	-2.89819	173.199	-62.1724	-26.2028	182.439	-71.1881	-45.5224	198.735	-77.0521	-60.8196	169.815	-21.9737	-67.8833	168.657	-33.1567	-91.7127	182.488	-53.9606	-104.15	198.364	-32.1387	-73.9807	206.143	-60.3539	-72.2291	205.478	-66.5718	-43.6311	215.388	-35.7446	-60.4821	216.777	-59.489	-46.9785	207.45	-52.7572	-20.0289	225.454	-32.1904	-49.2307	227.034	-50.6338	-37.0603	210.47	-43.6618	-14.6723	200.307	0.86785	-27.9368	203.373	6.25471	1.50616	177.642	-5.11501	-14.0464	
138	1.15	170.65	-36.3758	-6.6889	174.763	-62.258	-22.069	183.503	-75.5967	-45.5604	199.9	-79.2841	-60.545	166.596	-24.692	-66.2181	169.462	-32.4874	-92.6875	178.619	-57.2367	-103.709	195.917	-30.3889	-70.9292	206.588	-61.2307	-73.0589	208.456	-65.6068	-41.7031	214.99	-34.2291	-59.9145	217.548	-59.6374	-48.5374	209.364	-51.8715	-21.0122	227.252	-31.1047	-50.0682	224.018	-51.193	-34.9022	212.013	-44.5508	-15.0398	200.196	-0.621861	-26.3416	199.53	6.80732	-3.39219	176.642	-5.44413	-17.1521	
139	1.15833	167.656	-40.5608	-2.38603	174.882	-65.3992	-22.9134	184.928	-76.4226	-46.7258	203.609	-76.5014	-59.9742	171.29	-24.2129	-66.748	172.862	-32.1218	-93.1416	180.185	-59.8676	-107.993	191.827	-31.6945	-72.7848	207.727	-60.9758	-74.9283	209.724	-66.9904	-45.5941	214.515	-35.788	-61.1652	217.719	-58.9179	-50.8786	206.923	-53.1372	-23.255	227.217	-28.0519	-49.5804	222.933	-51.1814	-35.0863	210.308	-42.2673	-19.1599	200.641	1.95524	-27.1999	200.98	6.13963	0.453762	173.742	-5.5687	-12.5845	
140	1.16667	167.319	-42.5324	-3.28668	179.115	-64.1508	-27.4154	188.516	-73.3983	-43.7416	206.233	-76.2783	-60.0066	165.719	-27.1696	-69.7324	169.579	-35.4976	-94.6276	183.069	-54.1695	-112.042	196.744	-33.0554	-74.2147	204.891	-59.5286	-77.6798	210.842	-66.4694	-44.8875	215.406	-34.1318	-61.0853	221.924	-57.6974	-49.1519	213.502	-52.9055	-22.6722	229.454	-30.3982	-50.299	226.159	-50.4371	-33.1393	210.815	-43.2758	-19.9841	198.84	-1.15267	-28.7773	193.434	4.11291	-3.85955	171.699	-9.57457	-15.1038	
